<svg width="48" height="48" viewBox="0 0 48 48" fill="none" xmlns="http://www.w3.org/2000/svg">
<path d="M24 45.5C12.14 45.5 2.5 35.86 2.5 24C2.5 12.14 12.14 2.5 24 2.5C35.86 2.5 45.5 12.14 45.5 24C45.5 35.86 35.86 45.5 24 45.5ZM24 5.5C13.8 5.5 5.5 13.8 5.5 24C5.5 34.2 13.8 42.5 24 42.5C34.2 42.5 42.5 34.2 42.5 24C42.5 13.8 34.2 5.5 24 5.5Z" fill="#292D32"/>
<path d="M23.9997 36.5C23.5797 36.5 23.1797 36.44 22.8397 36.32C18.5397 34.86 11.7197 29.62 11.7197 21.82C11.7197 17.66 15.0797 14.28 19.2197 14.28C21.0197 14.28 22.6797 14.9 24.0197 16.02C25.3597 14.9 27.0397 14.28 28.7997 14.28C32.9397 14.28 36.2997 17.66 36.2997 21.82C36.2997 29.6 29.4797 34.84 25.1597 36.32C24.8197 36.44 24.3997 36.5 23.9997 36.5ZM19.1997 17.3C16.7197 17.3 14.6997 19.34 14.6997 21.84C14.6997 28.82 21.4397 32.7 23.7997 33.5C23.8797 33.52 24.0797 33.52 24.1597 33.5C26.5197 32.7 33.2597 28.82 33.2597 21.84C33.2597 19.34 31.2397 17.3 28.7597 17.3C27.3597 17.3 26.0197 17.98 25.1797 19.12C24.6197 19.88 23.3397 19.88 22.7797 19.12C21.9397 17.96 20.6397 17.3 19.1997 17.3Z" fill="#292D32"/>
</svg>
