<svg width="48" height="48" viewBox="0 0 48 48" fill="none" xmlns="http://www.w3.org/2000/svg">
<path d="M24.92 45.5C24.58 45.5 24.24 45.5 23.9 45.48C12.7 44.98 3.34002 35.96 2.56002 24.96C1.88002 15.52 7.34002 6.69998 16.14 2.99998C18.64 1.95998 19.96 2.75998 20.52 3.33998C21.08 3.89998 21.86 5.19998 20.82 7.57998C19.9 9.69998 19.44 11.96 19.46 14.28C19.5 23.14 26.86 30.66 35.84 31.02C37.14 31.08 38.42 30.98 39.66 30.76C42.3 30.28 43.4 31.34 43.82 32.02C44.24 32.7 44.72 34.16 43.12 36.32C38.88 42.12 32.14 45.5 24.92 45.5ZM5.54002 24.74C6.22002 34.26 14.34 42.06 24.02 42.48C30.6 42.8 36.84 39.8 40.68 34.56C40.98 34.14 41.12 33.84 41.18 33.68C41 33.66 40.68 33.64 40.18 33.74C38.72 34 37.2 34.1 35.7 34.04C25.14 33.62 16.5 24.76 16.44 14.32C16.44 11.56 16.98 8.89998 18.08 6.39998C18.28 5.95998 18.32 5.65998 18.34 5.49998C18.16 5.49998 17.84 5.53998 17.32 5.75998C9.70002 8.95999 4.98002 16.6 5.54002 24.74Z" fill="#292D32"/>
</svg>
